<?xml version="1.0" encoding="UTF-8"?>
<svg xmlns="http://www.w3.org/2000/svg" viewBox="-680.00 -430.00 1360.00 860.00" width="1360" height="860">
  <rect x="-680.00" y="-430.00" width="1360.00" height="860.00" fill="#0b1220" />
  <polygon points="808.91,153.10 788.91,187.74 808.91,222.38 774.26,242.38 739.62,222.38 719.62,257.03 679.62,257.03 679.62,217.03 714.26,197.03 694.26,162.38 714.26,127.74 734.26,93.10 774.26,93.10 774.26,133.10" fill="hsl(295.08000000000015, 65%, 62%)" fill-opacity="0.12" stroke="hsl(295.08000000000015, 65%, 62%)" stroke-width="1.5" stroke-linejoin="round" />
  <polygon points="672.83,-424.03 712.83,-424.03 732.83,-458.67 767.47,-438.67 767.47,-398.67 807.47,-398.67 827.47,-364.03 792.83,-344.03 758.19,-364.03 738.19,-329.38 698.19,-329.38 658.19,-329.38 638.19,-364.03 672.83,-384.03" fill="hsl(105.048, 65%, 62%)" fill-opacity="0.12" stroke="hsl(105.048, 65%, 62%)" stroke-width="1.5" stroke-linejoin="round" />
  <polygon points="612.83,-458.67 632.83,-424.03 672.83,-424.03 672.83,-384.03 638.19,-364.03 658.19,-329.38 638.19,-294.74 603.55,-314.74 603.55,-354.74 563.55,-354.74 543.55,-389.38 523.55,-424.03 543.55,-458.67 578.19,-438.67" fill="hsl(52.524, 65%, 62%)" fill-opacity="0.12" stroke="hsl(52.524, 65%, 62%)" stroke-width="1.5" stroke-linejoin="round" />
  <polygon points="543.55,-389.38 563.55,-354.74 603.55,-354.74 603.55,-314.74 568.91,-294.74 588.91,-260.10 568.91,-225.46 534.26,-245.46 534.26,-285.46 494.26,-285.46 474.26,-320.10 454.26,-354.74 474.26,-389.38 508.91,-369.38" fill="hsl(105.048, 65%, 62%)" fill-opacity="0.12" stroke="hsl(105.048, 65%, 62%)" stroke-width="1.5" stroke-linejoin="round" />
  <polygon points="543.55,-458.67 523.55,-424.03 543.55,-389.38 508.91,-369.38 474.26,-389.38 454.26,-354.74 414.26,-354.74 414.26,-394.74 448.91,-414.74 428.91,-449.38 448.91,-484.03 468.91,-518.67 508.91,-518.67 508.91,-478.67" fill="hsl(157.57200000000012, 65%, 62%)" fill-opacity="0.12" stroke="hsl(157.57200000000012, 65%, 62%)" stroke-width="1.5" stroke-linejoin="round" />
  <polygon points="802.11,-527.95 782.11,-493.31 802.11,-458.67 767.47,-438.67 732.83,-458.67 712.83,-424.03 672.83,-424.03 672.83,-464.03 707.47,-484.03 687.47,-518.67 707.47,-553.31 727.47,-587.95 767.47,-587.95 767.47,-547.95" fill="hsl(137.50800000000004, 65%, 62%)" fill-opacity="0.12" stroke="hsl(137.50800000000004, 65%, 62%)" stroke-width="1.5" stroke-linejoin="round" />
  <polygon points="707.47,-484.03 672.83,-464.03 672.83,-424.03 632.83,-424.03 612.83,-458.67 578.19,-438.67 543.55,-458.67 563.55,-493.31 603.55,-493.31 603.55,-533.31 638.19,-553.31 672.83,-573.31 707.47,-553.31 687.47,-518.67" fill="hsl(275.0160000000001, 65%, 62%)" fill-opacity="0.12" stroke="hsl(275.0160000000001, 65%, 62%)" stroke-width="1.5" stroke-linejoin="round" />
  <polygon points="439.62,-121.54 479.62,-121.54 499.62,-156.18 534.26,-136.18 534.26,-96.18 574.26,-96.18 594.26,-61.54 559.62,-41.54 524.98,-61.54 504.98,-26.90 464.98,-26.90 424.98,-26.90 404.98,-61.54 439.62,-81.54" fill="hsl(295.08000000000015, 65%, 62%)" fill-opacity="0.12" stroke="hsl(295.08000000000015, 65%, 62%)" stroke-width="1.5" stroke-linejoin="round" />
  <polygon points="379.62,-156.18 399.62,-121.54 439.62,-121.54 439.62,-81.54 404.98,-61.54 424.98,-26.90 404.98,7.74 370.34,-12.26 370.34,-52.26 330.34,-52.26 310.34,-86.90 290.34,-121.54 310.34,-156.18 344.98,-136.18" fill="hsl(52.524, 65%, 62%)" fill-opacity="0.12" stroke="hsl(52.524, 65%, 62%)" stroke-width="1.5" stroke-linejoin="round" />
  <polygon points="310.34,-86.90 330.34,-52.26 370.34,-52.26 370.34,-12.26 335.70,7.74 355.70,42.38 335.70,77.03 301.06,57.03 301.06,17.03 261.06,17.03 241.06,-17.62 221.06,-52.26 241.06,-86.90 275.70,-66.90" fill="hsl(295.08000000000015, 65%, 62%)" fill-opacity="0.12" stroke="hsl(295.08000000000015, 65%, 62%)" stroke-width="1.5" stroke-linejoin="round" />
  <polygon points="310.34,-156.18 290.34,-121.54 310.34,-86.90 275.70,-66.90 241.06,-86.90 221.06,-52.26 181.06,-52.26 181.06,-92.26 215.70,-112.26 195.70,-146.90 215.70,-181.54 235.70,-216.18 275.70,-216.18 275.70,-176.18" fill="hsl(157.57200000000012, 65%, 62%)" fill-opacity="0.12" stroke="hsl(157.57200000000012, 65%, 62%)" stroke-width="1.5" stroke-linejoin="round" />
  <polygon points="370.34,-190.82 330.34,-190.82 310.34,-156.18 275.70,-176.18 275.70,-216.18 235.70,-216.18 215.70,-250.82 250.34,-270.82 284.98,-250.82 304.98,-285.46 344.98,-285.46 384.98,-285.46 404.98,-250.82 370.34,-230.82" fill="hsl(20.064000000000078, 65%, 62%)" fill-opacity="0.12" stroke="hsl(20.064000000000078, 65%, 62%)" stroke-width="1.5" stroke-linejoin="round" />
  <polygon points="344.98,-285.46 304.98,-285.46 284.98,-250.82 250.34,-270.82 250.34,-310.82 210.34,-310.82 190.34,-345.46 224.98,-365.46 259.62,-345.46 279.62,-380.10 319.62,-380.10 359.62,-380.10 379.62,-345.46 344.98,-325.46" fill="hsl(295.08000000000015, 65%, 62%)" fill-opacity="0.12" stroke="hsl(295.08000000000015, 65%, 62%)" stroke-width="1.5" stroke-linejoin="round" />
  <polygon points="404.98,-250.82 384.98,-285.46 344.98,-285.46 344.98,-325.46 379.62,-345.46 359.62,-380.10 379.62,-414.74 414.26,-394.74 414.26,-354.74 454.26,-354.74 474.26,-320.10 494.26,-285.46 474.26,-250.82 439.62,-270.82" fill="hsl(157.57200000000012, 65%, 62%)" fill-opacity="0.12" stroke="hsl(157.57200000000012, 65%, 62%)" stroke-width="1.5" stroke-linejoin="round" />
  <polygon points="568.91,-225.46 548.91,-190.82 568.91,-156.18 534.26,-136.18 499.62,-156.18 479.62,-121.54 439.62,-121.54 439.62,-161.54 474.26,-181.54 454.26,-216.18 474.26,-250.82 494.26,-285.46 534.26,-285.46 534.26,-245.46" fill="hsl(137.50800000000004, 65%, 62%)" fill-opacity="0.12" stroke="hsl(137.50800000000004, 65%, 62%)" stroke-width="1.5" stroke-linejoin="round" />
  <polygon points="474.26,-181.54 439.62,-161.54 439.62,-121.54 399.62,-121.54 379.62,-156.18 344.98,-136.18 310.34,-156.18 330.34,-190.82 370.34,-190.82 370.34,-230.82 404.98,-250.82 439.62,-270.82 474.26,-250.82 454.26,-216.18" fill="hsl(275.0160000000001, 65%, 62%)" fill-opacity="0.12" stroke="hsl(275.0160000000001, 65%, 62%)" stroke-width="1.5" stroke-linejoin="round" />
  <polygon points="758.19,-105.46 778.19,-70.82 818.19,-70.82 818.19,-30.82 783.55,-10.82 803.55,23.82 783.55,58.46 748.91,38.46 748.91,-1.54 708.91,-1.54 688.91,-36.18 668.91,-70.82 688.91,-105.46 723.55,-85.46" fill="hsl(157.57200000000012, 65%, 62%)" fill-opacity="0.12" stroke="hsl(157.57200000000012, 65%, 62%)" stroke-width="1.5" stroke-linejoin="round" />
  <polygon points="758.19,-174.74 738.19,-140.10 758.19,-105.46 723.55,-85.46 688.91,-105.46 668.91,-70.82 628.91,-70.82 628.91,-110.82 663.55,-130.82 643.55,-165.46 663.55,-200.10 683.55,-234.74 723.55,-234.74 723.55,-194.74" fill="hsl(20.064000000000078, 65%, 62%)" fill-opacity="0.12" stroke="hsl(20.064000000000078, 65%, 62%)" stroke-width="1.5" stroke-linejoin="round" />
  <polygon points="663.55,-200.10 643.55,-165.46 663.55,-130.82 628.91,-110.82 594.26,-130.82 574.26,-96.18 534.26,-96.18 534.26,-136.18 568.91,-156.18 548.91,-190.82 568.91,-225.46 588.91,-260.10 628.91,-260.10 628.91,-220.10" fill="hsl(242.55600000000004, 65%, 62%)" fill-opacity="0.12" stroke="hsl(242.55600000000004, 65%, 62%)" stroke-width="1.5" stroke-linejoin="round" />
  <polygon points="723.55,-234.74 683.55,-234.74 663.55,-200.10 628.91,-220.10 628.91,-260.10 588.91,-260.10 568.91,-294.74 603.55,-314.74 638.19,-294.74 658.19,-329.38 698.19,-329.38 738.19,-329.38 758.19,-294.74 723.55,-274.74" fill="hsl(157.57200000000012, 65%, 62%)" fill-opacity="0.12" stroke="hsl(157.57200000000012, 65%, 62%)" stroke-width="1.5" stroke-linejoin="round" />
  <polygon points="386.42,335.59 366.42,300.95 326.42,300.95 326.42,260.95 361.06,240.95 341.06,206.31 361.06,171.67 395.70,191.67 395.70,231.67 435.70,231.67 455.70,266.31 475.70,300.95 455.70,335.59 421.06,315.59" fill="hsl(105.048, 65%, 62%)" fill-opacity="0.12" stroke="hsl(105.048, 65%, 62%)" stroke-width="1.5" stroke-linejoin="round" />
  <polygon points="386.42,404.87 406.42,370.23 386.42,335.59 421.06,315.59 455.70,335.59 475.70,300.95 515.70,300.95 515.70,340.95 481.06,360.95 501.06,395.59 481.06,430.23 461.06,464.87 421.06,464.87 421.06,424.87" fill="hsl(52.524, 65%, 62%)" fill-opacity="0.12" stroke="hsl(52.524, 65%, 62%)" stroke-width="1.5" stroke-linejoin="round" />
  <polygon points="481.06,430.23 501.06,395.59 481.06,360.95 515.70,340.95 550.34,360.95 570.34,326.31 610.34,326.31 610.34,366.31 575.70,386.31 595.70,420.95 575.70,455.59 555.70,490.23 515.70,490.23 515.70,450.23" fill="hsl(105.048, 65%, 62%)" fill-opacity="0.12" stroke="hsl(105.048, 65%, 62%)" stroke-width="1.5" stroke-linejoin="round" />
  <polygon points="291.78,430.23 271.78,464.87 291.78,499.51 257.14,519.51 222.50,499.51 202.50,534.15 162.50,534.15 162.50,494.15 197.14,474.15 177.14,439.51 197.14,404.87 217.14,370.23 257.14,370.23 257.14,410.23" fill="hsl(157.57200000000012, 65%, 62%)" fill-opacity="0.12" stroke="hsl(157.57200000000012, 65%, 62%)" stroke-width="1.5" stroke-linejoin="round" />
  <polygon points="231.78,275.59 271.78,275.59 291.78,240.95 326.42,260.95 326.42,300.95 366.42,300.95 386.42,335.59 351.78,355.59 317.14,335.59 297.14,370.23 257.14,370.23 217.14,370.23 197.14,335.59 231.78,315.59" fill="hsl(137.50800000000004, 65%, 62%)" fill-opacity="0.12" stroke="hsl(137.50800000000004, 65%, 62%)" stroke-width="1.5" stroke-linejoin="round" />
  <polygon points="317.14,335.59 351.78,355.59 386.42,335.59 406.42,370.23 386.42,404.87 421.06,424.87 421.06,464.87 381.06,464.87 361.06,430.23 326.42,450.23 291.78,430.23 257.14,410.23 257.14,370.23 297.14,370.23" fill="hsl(275.0160000000001, 65%, 62%)" fill-opacity="0.12" stroke="hsl(275.0160000000001, 65%, 62%)" stroke-width="1.5" stroke-linejoin="round" />
  <polygon points="670.34,480.95 650.34,515.59 670.34,550.23 635.70,570.23 601.06,550.23 581.06,584.87 541.06,584.87 541.06,544.87 575.70,524.87 555.70,490.23 575.70,455.59 595.70,420.95 635.70,420.95 635.70,460.95" fill="hsl(157.57200000000012, 65%, 62%)" fill-opacity="0.12" stroke="hsl(157.57200000000012, 65%, 62%)" stroke-width="1.5" stroke-linejoin="round" />
  <polygon points="610.34,326.31 650.34,326.31 670.34,291.67 704.98,311.67 704.98,351.67 744.98,351.67 764.98,386.31 730.34,406.31 695.70,386.31 675.70,420.95 635.70,420.95 595.70,420.95 575.70,386.31 610.34,366.31" fill="hsl(137.50800000000004, 65%, 62%)" fill-opacity="0.12" stroke="hsl(137.50800000000004, 65%, 62%)" stroke-width="1.5" stroke-linejoin="round" />
  <polygon points="695.70,386.31 730.34,406.31 764.98,386.31 784.98,420.95 764.98,455.59 799.62,475.59 799.62,515.59 759.62,515.59 739.62,480.95 704.98,500.95 670.34,480.95 635.70,460.95 635.70,420.95 675.70,420.95" fill="hsl(275.0160000000001, 65%, 62%)" fill-opacity="0.12" stroke="hsl(275.0160000000001, 65%, 62%)" stroke-width="1.5" stroke-linejoin="round" />
  <polygon points="490.34,67.74 450.34,67.74 430.34,102.38 395.70,82.38 395.70,42.38 355.70,42.38 335.70,7.74 370.34,-12.26 404.98,7.74 424.98,-26.90 464.98,-26.90 504.98,-26.90 524.98,7.74 490.34,27.74" fill="hsl(295.08000000000015, 65%, 62%)" fill-opacity="0.12" stroke="hsl(295.08000000000015, 65%, 62%)" stroke-width="1.5" stroke-linejoin="round" />
  <polygon points="550.34,102.38 530.34,67.74 490.34,67.74 490.34,27.74 524.98,7.74 504.98,-26.90 524.98,-61.54 559.62,-41.54 559.62,-1.54 599.62,-1.54 619.62,33.10 639.62,67.74 619.62,102.38 584.98,82.38" fill="hsl(52.524, 65%, 62%)" fill-opacity="0.12" stroke="hsl(52.524, 65%, 62%)" stroke-width="1.5" stroke-linejoin="round" />
  <polygon points="619.62,33.10 599.62,-1.54 559.62,-1.54 559.62,-41.54 594.26,-61.54 574.26,-96.18 594.26,-130.82 628.91,-110.82 628.91,-70.82 668.91,-70.82 688.91,-36.18 708.91,-1.54 688.91,33.10 654.26,13.10" fill="hsl(295.08000000000015, 65%, 62%)" fill-opacity="0.12" stroke="hsl(295.08000000000015, 65%, 62%)" stroke-width="1.5" stroke-linejoin="round" />
  <polygon points="619.62,102.38 639.62,67.74 619.62,33.10 654.26,13.10 688.91,33.10 708.91,-1.54 748.91,-1.54 748.91,38.46 714.26,58.46 734.26,93.10 714.26,127.74 694.26,162.38 654.26,162.38 654.26,122.38" fill="hsl(157.57200000000012, 65%, 62%)" fill-opacity="0.12" stroke="hsl(157.57200000000012, 65%, 62%)" stroke-width="1.5" stroke-linejoin="round" />
  <polygon points="559.62,137.03 599.62,137.03 619.62,102.38 654.26,122.38 654.26,162.38 694.26,162.38 714.26,197.03 679.62,217.03 644.98,197.03 624.98,231.67 584.98,231.67 544.98,231.67 524.98,197.03 559.62,177.03" fill="hsl(20.064000000000078, 65%, 62%)" fill-opacity="0.12" stroke="hsl(20.064000000000078, 65%, 62%)" stroke-width="1.5" stroke-linejoin="round" />
  <polygon points="584.98,231.67 624.98,231.67 644.98,197.03 679.62,217.03 679.62,257.03 719.62,257.03 739.62,291.67 704.98,311.67 670.34,291.67 650.34,326.31 610.34,326.31 570.34,326.31 550.34,291.67 584.98,271.67" fill="hsl(242.55600000000004, 65%, 62%)" fill-opacity="0.12" stroke="hsl(242.55600000000004, 65%, 62%)" stroke-width="1.5" stroke-linejoin="round" />
  <polygon points="524.98,197.03 544.98,231.67 584.98,231.67 584.98,271.67 550.34,291.67 570.34,326.31 550.34,360.95 515.70,340.95 515.70,300.95 475.70,300.95 455.70,266.31 435.70,231.67 455.70,197.03 490.34,217.03" fill="hsl(157.57200000000012, 65%, 62%)" fill-opacity="0.12" stroke="hsl(157.57200000000012, 65%, 62%)" stroke-width="1.5" stroke-linejoin="round" />
  <polygon points="361.06,171.67 381.06,137.03 361.06,102.38 395.70,82.38 430.34,102.38 450.34,67.74 490.34,67.74 490.34,107.74 455.70,127.74 475.70,162.38 455.70,197.03 435.70,231.67 395.70,231.67 395.70,191.67" fill="hsl(137.50800000000004, 65%, 62%)" fill-opacity="0.12" stroke="hsl(137.50800000000004, 65%, 62%)" stroke-width="1.5" stroke-linejoin="round" />
  <polygon points="455.70,127.74 490.34,107.74 490.34,67.74 530.34,67.74 550.34,102.38 584.98,82.38 619.62,102.38 599.62,137.03 559.62,137.03 559.62,177.03 524.98,197.03 490.34,217.03 455.70,197.03 475.70,162.38" fill="hsl(275.0160000000001, 65%, 62%)" fill-opacity="0.12" stroke="hsl(275.0160000000001, 65%, 62%)" stroke-width="1.5" stroke-linejoin="round" />
  <polygon points="77.14,146.31 57.14,180.95 77.14,215.59 42.50,235.59 7.85,215.59 -12.15,250.23 -52.15,250.23 -52.15,210.23 -17.50,190.23 -37.50,155.59 -17.50,120.95 2.50,86.31 42.50,86.31 42.50,126.31" fill="hsl(105.048, 65%, 62%)" fill-opacity="0.12" stroke="hsl(105.048, 65%, 62%)" stroke-width="1.5" stroke-linejoin="round" />
  <polygon points="137.14,111.67 97.14,111.67 77.14,146.31 42.50,126.31 42.50,86.31 2.50,86.31 -17.50,51.67 17.14,31.67 51.78,51.67 71.78,17.03 111.78,17.03 151.78,17.03 171.78,51.67 137.14,71.67" fill="hsl(52.524, 65%, 62%)" fill-opacity="0.12" stroke="hsl(52.524, 65%, 62%)" stroke-width="1.5" stroke-linejoin="round" />
  <polygon points="111.78,17.03 71.78,17.03 51.78,51.67 17.14,31.67 17.14,-8.33 -22.86,-8.33 -42.86,-42.97 -8.22,-62.97 26.42,-42.97 46.42,-77.62 86.42,-77.62 126.42,-77.62 146.42,-42.97 111.78,-22.97" fill="hsl(105.048, 65%, 62%)" fill-opacity="0.12" stroke="hsl(105.048, 65%, 62%)" stroke-width="1.5" stroke-linejoin="round" />
  <polygon points="171.78,51.67 151.78,17.03 111.78,17.03 111.78,-22.97 146.42,-42.97 126.42,-77.62 146.42,-112.26 181.06,-92.26 181.06,-52.26 221.06,-52.26 241.06,-17.62 261.06,17.03 241.06,51.67 206.42,31.67" fill="hsl(157.57200000000012, 65%, 62%)" fill-opacity="0.12" stroke="hsl(157.57200000000012, 65%, 62%)" stroke-width="1.5" stroke-linejoin="round" />
  <polygon points="171.78,120.95 191.78,86.31 171.78,51.67 206.42,31.67 241.06,51.67 261.06,17.03 301.06,17.03 301.06,57.03 266.42,77.03 286.42,111.67 266.42,146.31 246.42,180.95 206.42,180.95 206.42,140.95" fill="hsl(20.064000000000078, 65%, 62%)" fill-opacity="0.12" stroke="hsl(20.064000000000078, 65%, 62%)" stroke-width="1.5" stroke-linejoin="round" />
  <polygon points="266.42,146.31 286.42,111.67 266.42,77.03 301.06,57.03 335.70,77.03 355.70,42.38 395.70,42.38 395.70,82.38 361.06,102.38 381.06,137.03 361.06,171.67 341.06,206.31 301.06,206.31 301.06,166.31" fill="hsl(242.55600000000004, 65%, 62%)" fill-opacity="0.12" stroke="hsl(242.55600000000004, 65%, 62%)" stroke-width="1.5" stroke-linejoin="round" />
  <polygon points="206.42,180.95 246.42,180.95 266.42,146.31 301.06,166.31 301.06,206.31 341.06,206.31 361.06,240.95 326.42,260.95 291.78,240.95 271.78,275.59 231.78,275.59 191.78,275.59 171.78,240.95 206.42,220.95" fill="hsl(327.5400000000001, 65%, 62%)" fill-opacity="0.12" stroke="hsl(327.5400000000001, 65%, 62%)" stroke-width="1.5" stroke-linejoin="round" />
  <polygon points="102.50,310.23 82.50,275.59 42.50,275.59 42.50,235.59 77.14,215.59 57.14,180.95 77.14,146.31 111.78,166.31 111.78,206.31 151.78,206.31 171.78,240.95 191.78,275.59 171.78,310.23 137.14,290.23" fill="hsl(137.50800000000004, 65%, 62%)" fill-opacity="0.12" stroke="hsl(137.50800000000004, 65%, 62%)" stroke-width="1.5" stroke-linejoin="round" />
  <polygon points="111.78,206.31 111.78,166.31 77.14,146.31 97.14,111.67 137.14,111.67 137.14,71.67 171.78,51.67 191.78,86.31 171.78,120.95 206.42,140.95 206.42,180.95 206.42,220.95 171.78,240.95 151.78,206.31" fill="hsl(275.0160000000001, 65%, 62%)" fill-opacity="0.12" stroke="hsl(275.0160000000001, 65%, 62%)" stroke-width="1.5" stroke-linejoin="round" />
  <polygon points="-68.22,-206.90 -88.22,-172.26 -68.22,-137.62 -102.86,-117.62 -137.50,-137.62 -157.50,-102.97 -197.50,-102.97 -197.50,-142.97 -162.86,-162.97 -182.86,-197.62 -162.86,-232.26 -142.86,-266.90 -102.86,-266.90 -102.86,-226.90" fill="hsl(295.08000000000015, 65%, 62%)" fill-opacity="0.12" stroke="hsl(295.08000000000015, 65%, 62%)" stroke-width="1.5" stroke-linejoin="round" />
  <polygon points="-8.22,-241.54 -48.22,-241.54 -68.22,-206.90 -102.86,-226.90 -102.86,-266.90 -142.86,-266.90 -162.86,-301.54 -128.22,-321.54 -93.58,-301.54 -73.58,-336.18 -33.58,-336.18 6.42,-336.18 26.42,-301.54 -8.22,-281.54" fill="hsl(52.524, 65%, 62%)" fill-opacity="0.12" stroke="hsl(52.524, 65%, 62%)" stroke-width="1.5" stroke-linejoin="round" />
  <polygon points="-33.58,-336.18 -73.58,-336.18 -93.58,-301.54 -128.22,-321.54 -128.22,-361.54 -168.22,-361.54 -188.22,-396.18 -153.58,-416.18 -118.94,-396.18 -98.94,-430.82 -58.94,-430.82 -18.94,-430.82 1.06,-396.18 -33.58,-376.18" fill="hsl(295.08000000000015, 65%, 62%)" fill-opacity="0.12" stroke="hsl(295.08000000000015, 65%, 62%)" stroke-width="1.5" stroke-linejoin="round" />
  <polygon points="26.42,-301.54 6.42,-336.18 -33.58,-336.18 -33.58,-376.18 1.06,-396.18 -18.94,-430.82 1.06,-465.46 35.70,-445.46 35.70,-405.46 75.70,-405.46 95.70,-370.82 115.70,-336.18 95.70,-301.54 61.06,-321.54" fill="hsl(157.57200000000012, 65%, 62%)" fill-opacity="0.12" stroke="hsl(157.57200000000012, 65%, 62%)" stroke-width="1.5" stroke-linejoin="round" />
  <polygon points="26.42,-232.26 46.42,-266.90 26.42,-301.54 61.06,-321.54 95.70,-301.54 115.70,-336.18 155.70,-336.18 155.70,-296.18 121.06,-276.18 141.06,-241.54 121.06,-206.90 101.06,-172.26 61.06,-172.26 61.06,-212.26" fill="hsl(20.064000000000078, 65%, 62%)" fill-opacity="0.12" stroke="hsl(20.064000000000078, 65%, 62%)" stroke-width="1.5" stroke-linejoin="round" />
  <polygon points="121.06,-206.90 141.06,-241.54 121.06,-276.18 155.70,-296.18 190.34,-276.18 210.34,-310.82 250.34,-310.82 250.34,-270.82 215.70,-250.82 235.70,-216.18 215.70,-181.54 195.70,-146.90 155.70,-146.90 155.70,-186.90" fill="hsl(295.08000000000015, 65%, 62%)" fill-opacity="0.12" stroke="hsl(295.08000000000015, 65%, 62%)" stroke-width="1.5" stroke-linejoin="round" />
  <polygon points="61.06,-172.26 101.06,-172.26 121.06,-206.90 155.70,-186.90 155.70,-146.90 195.70,-146.90 215.70,-112.26 181.06,-92.26 146.42,-112.26 126.42,-77.62 86.42,-77.62 46.42,-77.62 26.42,-112.26 61.06,-132.26" fill="hsl(157.57200000000012, 65%, 62%)" fill-opacity="0.12" stroke="hsl(157.57200000000012, 65%, 62%)" stroke-width="1.5" stroke-linejoin="round" />
  <polygon points="-42.86,-42.97 -62.86,-77.62 -102.86,-77.62 -102.86,-117.62 -68.22,-137.62 -88.22,-172.26 -68.22,-206.90 -33.58,-186.90 -33.58,-146.90 6.42,-146.90 26.42,-112.26 46.42,-77.62 26.42,-42.97 -8.22,-62.97" fill="hsl(137.50800000000004, 65%, 62%)" fill-opacity="0.12" stroke="hsl(137.50800000000004, 65%, 62%)" stroke-width="1.5" stroke-linejoin="round" />
  <polygon points="-33.58,-146.90 -33.58,-186.90 -68.22,-206.90 -48.22,-241.54 -8.22,-241.54 -8.22,-281.54 26.42,-301.54 46.42,-266.90 26.42,-232.26 61.06,-212.26 61.06,-172.26 61.06,-132.26 26.42,-112.26 6.42,-146.90" fill="hsl(275.0160000000001, 65%, 62%)" fill-opacity="0.12" stroke="hsl(275.0160000000001, 65%, 62%)" stroke-width="1.5" stroke-linejoin="round" />
  <polygon points="-206.79,190.23 -186.79,224.87 -146.79,224.87 -146.79,264.87 -181.43,284.87 -161.43,319.51 -181.43,354.15 -216.07,334.15 -216.07,294.15 -256.07,294.15 -276.07,259.51 -296.07,224.87 -276.07,190.23 -241.43,210.23" fill="hsl(295.08000000000015, 65%, 62%)" fill-opacity="0.12" stroke="hsl(295.08000000000015, 65%, 62%)" stroke-width="1.5" stroke-linejoin="round" />
  <polygon points="-206.79,120.95 -226.79,155.59 -206.79,190.23 -241.43,210.23 -276.07,190.23 -296.07,224.87 -336.07,224.87 -336.07,184.87 -301.43,164.87 -321.43,130.23 -301.43,95.59 -281.43,60.95 -241.43,60.95 -241.43,100.95" fill="hsl(52.524, 65%, 62%)" fill-opacity="0.12" stroke="hsl(52.524, 65%, 62%)" stroke-width="1.5" stroke-linejoin="round" />
  <polygon points="-301.43,95.59 -321.43,130.23 -301.43,164.87 -336.07,184.87 -370.71,164.87 -390.71,199.51 -430.71,199.51 -430.71,159.51 -396.07,139.51 -416.07,104.87 -396.07,70.23 -376.07,35.59 -336.07,35.59 -336.07,75.59" fill="hsl(295.08000000000015, 65%, 62%)" fill-opacity="0.12" stroke="hsl(295.08000000000015, 65%, 62%)" stroke-width="1.5" stroke-linejoin="round" />
  <polygon points="-241.43,60.95 -281.43,60.95 -301.43,95.59 -336.07,75.59 -336.07,35.59 -376.07,35.59 -396.07,0.95 -361.43,-19.05 -326.79,0.95 -306.79,-33.69 -266.79,-33.69 -226.79,-33.69 -206.79,0.95 -241.43,20.95" fill="hsl(157.57200000000012, 65%, 62%)" fill-opacity="0.12" stroke="hsl(157.57200000000012, 65%, 62%)" stroke-width="1.5" stroke-linejoin="round" />
  <polygon points="-181.43,95.59 -201.43,60.95 -241.43,60.95 -241.43,20.95 -206.79,0.95 -226.79,-33.69 -206.79,-68.33 -172.15,-48.33 -172.15,-8.33 -132.15,-8.33 -112.15,26.31 -92.15,60.95 -112.15,95.59 -146.79,75.59" fill="hsl(20.064000000000078, 65%, 62%)" fill-opacity="0.12" stroke="hsl(20.064000000000078, 65%, 62%)" stroke-width="1.5" stroke-linejoin="round" />
  <polygon points="-112.15,26.31 -132.15,-8.33 -172.15,-8.33 -172.15,-48.33 -137.50,-68.33 -157.50,-102.97 -137.50,-137.62 -102.86,-117.62 -102.86,-77.62 -62.86,-77.62 -42.86,-42.97 -22.86,-8.33 -42.86,26.31 -77.50,6.31" fill="hsl(242.55600000000004, 65%, 62%)" fill-opacity="0.12" stroke="hsl(242.55600000000004, 65%, 62%)" stroke-width="1.5" stroke-linejoin="round" />
  <polygon points="-112.15,95.59 -92.15,60.95 -112.15,26.31 -77.50,6.31 -42.86,26.31 -22.86,-8.33 17.14,-8.33 17.14,31.67 -17.50,51.67 2.50,86.31 -17.50,120.95 -37.50,155.59 -77.50,155.59 -77.50,115.59" fill="hsl(157.57200000000012, 65%, 62%)" fill-opacity="0.12" stroke="hsl(157.57200000000012, 65%, 62%)" stroke-width="1.5" stroke-linejoin="round" />
  <polygon points="-52.15,250.23 -92.15,250.23 -112.15,284.87 -146.79,264.87 -146.79,224.87 -186.79,224.87 -206.79,190.23 -172.15,170.23 -137.50,190.23 -117.50,155.59 -77.50,155.59 -37.50,155.59 -17.50,190.23 -52.15,210.23" fill="hsl(137.50800000000004, 65%, 62%)" fill-opacity="0.12" stroke="hsl(137.50800000000004, 65%, 62%)" stroke-width="1.5" stroke-linejoin="round" />
  <polygon points="-137.50,190.23 -172.15,170.23 -206.79,190.23 -226.79,155.59 -206.79,120.95 -241.43,100.95 -241.43,60.95 -201.43,60.95 -181.43,95.59 -146.79,75.59 -112.15,95.59 -77.50,115.59 -77.50,155.59 -117.50,155.59" fill="hsl(275.0160000000001, 65%, 62%)" fill-opacity="0.12" stroke="hsl(275.0160000000001, 65%, 62%)" stroke-width="1.5" stroke-linejoin="round" />
  <polygon points="-26.79,344.87 -66.79,344.87 -86.79,379.51 -121.43,359.51 -121.43,319.51 -161.43,319.51 -181.43,284.87 -146.79,264.87 -112.15,284.87 -92.15,250.23 -52.15,250.23 -12.15,250.23 7.85,284.87 -26.79,304.87" fill="hsl(242.55600000000004, 65%, 62%)" fill-opacity="0.12" stroke="hsl(242.55600000000004, 65%, 62%)" stroke-width="1.5" stroke-linejoin="round" />
  <polygon points="33.21,379.51 13.21,344.87 -26.79,344.87 -26.79,304.87 7.85,284.87 -12.15,250.23 7.85,215.59 42.50,235.59 42.50,275.59 82.50,275.59 102.50,310.23 122.50,344.87 102.50,379.51 67.85,359.51" fill="hsl(52.524, 65%, 62%)" fill-opacity="0.12" stroke="hsl(52.524, 65%, 62%)" stroke-width="1.5" stroke-linejoin="round" />
  <polygon points="102.50,379.51 122.50,344.87 102.50,310.23 137.14,290.23 171.78,310.23 191.78,275.59 231.78,275.59 231.78,315.59 197.14,335.59 217.14,370.23 197.14,404.87 177.14,439.51 137.14,439.51 137.14,399.51" fill="hsl(190.03200000000004, 65%, 62%)" fill-opacity="0.12" stroke="hsl(190.03200000000004, 65%, 62%)" stroke-width="1.5" stroke-linejoin="round" />
  <polygon points="42.50,414.15 82.50,414.15 102.50,379.51 137.14,399.51 137.14,439.51 177.14,439.51 197.14,474.15 162.50,494.15 127.85,474.15 107.85,508.79 67.85,508.79 27.85,508.79 7.85,474.15 42.50,454.15" fill="hsl(20.064000000000078, 65%, 62%)" fill-opacity="0.12" stroke="hsl(20.064000000000078, 65%, 62%)" stroke-width="1.5" stroke-linejoin="round" />
  <polygon points="-156.07,448.79 -136.07,414.15 -156.07,379.51 -121.43,359.51 -86.79,379.51 -66.79,344.87 -26.79,344.87 -26.79,384.87 -61.43,404.87 -41.43,439.51 -61.43,474.15 -81.43,508.79 -121.43,508.79 -121.43,468.79" fill="hsl(137.50800000000004, 65%, 62%)" fill-opacity="0.12" stroke="hsl(137.50800000000004, 65%, 62%)" stroke-width="1.5" stroke-linejoin="round" />
  <polygon points="-61.43,404.87 -26.79,384.87 -26.79,344.87 13.21,344.87 33.21,379.51 67.85,359.51 102.50,379.51 82.50,414.15 42.50,414.15 42.50,454.15 7.85,474.15 -26.79,494.15 -61.43,474.15 -41.43,439.51" fill="hsl(275.0160000000001, 65%, 62%)" fill-opacity="0.12" stroke="hsl(275.0160000000001, 65%, 62%)" stroke-width="1.5" stroke-linejoin="round" />
  <polygon points="-723.91,278.08 -743.91,243.44 -783.91,243.44 -783.91,203.44 -749.27,183.44 -769.27,148.79 -749.27,114.15 -714.63,134.15 -714.63,174.15 -674.63,174.15 -654.63,208.79 -634.63,243.44 -654.63,278.08 -689.27,258.08" fill="hsl(105.048, 65%, 62%)" fill-opacity="0.12" stroke="hsl(105.048, 65%, 62%)" stroke-width="1.5" stroke-linejoin="round" />
  <polygon points="-723.91,347.36 -703.91,312.72 -723.91,278.08 -689.27,258.08 -654.63,278.08 -634.63,243.44 -594.63,243.44 -594.63,283.44 -629.27,303.44 -609.27,338.08 -629.27,372.72 -649.27,407.36 -689.27,407.36 -689.27,367.36" fill="hsl(52.524, 65%, 62%)" fill-opacity="0.12" stroke="hsl(52.524, 65%, 62%)" stroke-width="1.5" stroke-linejoin="round" />
  <polygon points="-629.27,372.72 -609.27,338.08 -629.27,303.44 -594.63,283.44 -559.99,303.44 -539.99,268.79 -499.99,268.79 -499.99,308.79 -534.63,328.79 -514.63,363.44 -534.63,398.08 -554.63,432.72 -594.63,432.72 -594.63,392.72" fill="hsl(105.048, 65%, 62%)" fill-opacity="0.12" stroke="hsl(105.048, 65%, 62%)" stroke-width="1.5" stroke-linejoin="round" />
  <polygon points="-689.27,407.36 -649.27,407.36 -629.27,372.72 -594.63,392.72 -594.63,432.72 -554.63,432.72 -534.63,467.36 -569.27,487.36 -603.91,467.36 -623.91,502.00 -663.91,502.00 -703.91,502.00 -723.91,467.36 -689.27,447.36" fill="hsl(157.57200000000012, 65%, 62%)" fill-opacity="0.12" stroke="hsl(157.57200000000012, 65%, 62%)" stroke-width="1.5" stroke-linejoin="round" />
  <polygon points="-345.35,328.79 -365.35,294.15 -405.35,294.15 -405.35,254.15 -370.71,234.15 -390.71,199.51 -370.71,164.87 -336.07,184.87 -336.07,224.87 -296.07,224.87 -276.07,259.51 -256.07,294.15 -276.07,328.79 -310.71,308.79" fill="hsl(295.08000000000015, 65%, 62%)" fill-opacity="0.12" stroke="hsl(295.08000000000015, 65%, 62%)" stroke-width="1.5" stroke-linejoin="round" />
  <polygon points="-345.35,398.08 -325.35,363.44 -345.35,328.79 -310.71,308.79 -276.07,328.79 -256.07,294.15 -216.07,294.15 -216.07,334.15 -250.71,354.15 -230.71,388.79 -250.71,423.44 -270.71,458.08 -310.71,458.08 -310.71,418.08" fill="hsl(52.524, 65%, 62%)" fill-opacity="0.12" stroke="hsl(52.524, 65%, 62%)" stroke-width="1.5" stroke-linejoin="round" />
  <polygon points="-250.71,423.44 -230.71,388.79 -250.71,354.15 -216.07,334.15 -181.43,354.15 -161.43,319.51 -121.43,319.51 -121.43,359.51 -156.07,379.51 -136.07,414.15 -156.07,448.79 -176.07,483.44 -216.07,483.44 -216.07,443.44" fill="hsl(242.55600000000004, 65%, 62%)" fill-opacity="0.12" stroke="hsl(242.55600000000004, 65%, 62%)" stroke-width="1.5" stroke-linejoin="round" />
  <polygon points="-310.71,458.08 -270.71,458.08 -250.71,423.44 -216.07,443.44 -216.07,483.44 -176.07,483.44 -156.07,518.08 -190.71,538.08 -225.35,518.08 -245.35,552.72 -285.35,552.72 -325.35,552.72 -345.35,518.08 -310.71,498.08" fill="hsl(157.57200000000012, 65%, 62%)" fill-opacity="0.12" stroke="hsl(157.57200000000012, 65%, 62%)" stroke-width="1.5" stroke-linejoin="round" />
  <polygon points="-370.71,423.44 -350.71,458.08 -310.71,458.08 -310.71,498.08 -345.35,518.08 -325.35,552.72 -345.35,587.36 -379.99,567.36 -379.99,527.36 -419.99,527.36 -439.99,492.72 -459.99,458.08 -439.99,423.44 -405.35,443.44" fill="hsl(20.064000000000078, 65%, 62%)" fill-opacity="0.12" stroke="hsl(20.064000000000078, 65%, 62%)" stroke-width="1.5" stroke-linejoin="round" />
  <polygon points="-439.99,423.44 -459.99,458.08 -439.99,492.72 -474.63,512.72 -509.27,492.72 -529.27,527.36 -569.27,527.36 -569.27,487.36 -534.63,467.36 -554.63,432.72 -534.63,398.08 -514.63,363.44 -474.63,363.44 -474.63,403.44" fill="hsl(157.57200000000012, 65%, 62%)" fill-opacity="0.12" stroke="hsl(157.57200000000012, 65%, 62%)" stroke-width="1.5" stroke-linejoin="round" />
  <polygon points="-499.99,268.79 -459.99,268.79 -439.99,234.15 -405.35,254.15 -405.35,294.15 -365.35,294.15 -345.35,328.79 -379.99,348.79 -414.63,328.79 -434.63,363.44 -474.63,363.44 -514.63,363.44 -534.63,328.79 -499.99,308.79" fill="hsl(137.50800000000004, 65%, 62%)" fill-opacity="0.12" stroke="hsl(137.50800000000004, 65%, 62%)" stroke-width="1.5" stroke-linejoin="round" />
  <polygon points="-414.63,328.79 -379.99,348.79 -345.35,328.79 -325.35,363.44 -345.35,398.08 -310.71,418.08 -310.71,458.08 -350.71,458.08 -370.71,423.44 -405.35,443.44 -439.99,423.44 -474.63,403.44 -474.63,363.44 -434.63,363.44" fill="hsl(275.0160000000001, 65%, 62%)" fill-opacity="0.12" stroke="hsl(275.0160000000001, 65%, 62%)" stroke-width="1.5" stroke-linejoin="round" />
  <polygon points="-619.99,10.23 -659.99,10.23 -679.99,44.87 -714.63,24.87 -714.63,-15.13 -754.63,-15.13 -774.63,-49.77 -739.99,-69.77 -705.35,-49.77 -685.35,-84.41 -645.35,-84.41 -605.35,-84.41 -585.35,-49.77 -619.99,-29.77" fill="hsl(295.08000000000015, 65%, 62%)" fill-opacity="0.12" stroke="hsl(295.08000000000015, 65%, 62%)" stroke-width="1.5" stroke-linejoin="round" />
  <polygon points="-559.99,44.87 -579.99,10.23 -619.99,10.23 -619.99,-29.77 -585.35,-49.77 -605.35,-84.41 -585.35,-119.05 -550.71,-99.05 -550.71,-59.05 -510.71,-59.05 -490.71,-24.41 -470.71,10.23 -490.71,44.87 -525.35,24.87" fill="hsl(52.524, 65%, 62%)" fill-opacity="0.12" stroke="hsl(52.524, 65%, 62%)" stroke-width="1.5" stroke-linejoin="round" />
  <polygon points="-490.71,-24.41 -510.71,-59.05 -550.71,-59.05 -550.71,-99.05 -516.07,-119.05 -536.07,-153.69 -516.07,-188.33 -481.43,-168.33 -481.43,-128.33 -441.43,-128.33 -421.43,-93.69 -401.43,-59.05 -421.43,-24.41 -456.07,-44.41" fill="hsl(295.08000000000015, 65%, 62%)" fill-opacity="0.12" stroke="hsl(295.08000000000015, 65%, 62%)" stroke-width="1.5" stroke-linejoin="round" />
  <polygon points="-490.71,44.87 -470.71,10.23 -490.71,-24.41 -456.07,-44.41 -421.43,-24.41 -401.43,-59.05 -361.43,-59.05 -361.43,-19.05 -396.07,0.95 -376.07,35.59 -396.07,70.23 -416.07,104.87 -456.07,104.87 -456.07,64.87" fill="hsl(157.57200000000012, 65%, 62%)" fill-opacity="0.12" stroke="hsl(157.57200000000012, 65%, 62%)" stroke-width="1.5" stroke-linejoin="round" />
  <polygon points="-550.71,79.51 -510.71,79.51 -490.71,44.87 -456.07,64.87 -456.07,104.87 -416.07,104.87 -396.07,139.51 -430.71,159.51 -465.35,139.51 -485.35,174.15 -525.35,174.15 -565.35,174.15 -585.35,139.51 -550.71,119.51" fill="hsl(20.064000000000078, 65%, 62%)" fill-opacity="0.12" stroke="hsl(20.064000000000078, 65%, 62%)" stroke-width="1.5" stroke-linejoin="round" />
  <polygon points="-525.35,174.15 -485.35,174.15 -465.35,139.51 -430.71,159.51 -430.71,199.51 -390.71,199.51 -370.71,234.15 -405.35,254.15 -439.99,234.15 -459.99,268.79 -499.99,268.79 -539.99,268.79 -559.99,234.15 -525.35,214.15" fill="hsl(242.55600000000004, 65%, 62%)" fill-opacity="0.12" stroke="hsl(242.55600000000004, 65%, 62%)" stroke-width="1.5" stroke-linejoin="round" />
  <polygon points="-585.35,139.51 -565.35,174.15 -525.35,174.15 -525.35,214.15 -559.99,234.15 -539.99,268.79 -559.99,303.44 -594.63,283.44 -594.63,243.44 -634.63,243.44 -654.63,208.79 -674.63,174.15 -654.63,139.51 -619.99,159.51" fill="hsl(157.57200000000012, 65%, 62%)" fill-opacity="0.12" stroke="hsl(157.57200000000012, 65%, 62%)" stroke-width="1.5" stroke-linejoin="round" />
  <polygon points="-749.27,114.15 -729.27,79.51 -749.27,44.87 -714.63,24.87 -679.99,44.87 -659.99,10.23 -619.99,10.23 -619.99,50.23 -654.63,70.23 -634.63,104.87 -654.63,139.51 -674.63,174.15 -714.63,174.15 -714.63,134.15" fill="hsl(137.50800000000004, 65%, 62%)" fill-opacity="0.12" stroke="hsl(137.50800000000004, 65%, 62%)" stroke-width="1.5" stroke-linejoin="round" />
  <polygon points="-654.63,70.23 -619.99,50.23 -619.99,10.23 -579.99,10.23 -559.99,44.87 -525.35,24.87 -490.71,44.87 -510.71,79.51 -550.71,79.51 -550.71,119.51 -585.35,139.51 -619.99,159.51 -654.63,139.51 -634.63,104.87" fill="hsl(275.0160000000001, 65%, 62%)" fill-opacity="0.12" stroke="hsl(275.0160000000001, 65%, 62%)" stroke-width="1.5" stroke-linejoin="round" />
  <polygon points="-437.50,-481.54 -397.50,-481.54 -377.50,-516.18 -342.86,-496.18 -342.86,-456.18 -302.86,-456.18 -282.86,-421.54 -317.50,-401.54 -352.15,-421.54 -372.15,-386.90 -412.15,-386.90 -452.15,-386.90 -472.15,-421.54 -437.50,-441.54" fill="hsl(105.048, 65%, 62%)" fill-opacity="0.12" stroke="hsl(105.048, 65%, 62%)" stroke-width="1.5" stroke-linejoin="round" />
  <polygon points="-497.50,-516.18 -477.50,-481.54 -437.50,-481.54 -437.50,-441.54 -472.15,-421.54 -452.15,-386.90 -472.15,-352.26 -506.79,-372.26 -506.79,-412.26 -546.79,-412.26 -566.79,-446.90 -586.79,-481.54 -566.79,-516.18 -532.15,-496.18" fill="hsl(52.524, 65%, 62%)" fill-opacity="0.12" stroke="hsl(52.524, 65%, 62%)" stroke-width="1.5" stroke-linejoin="round" />
  <polygon points="-566.79,-446.90 -546.79,-412.26 -506.79,-412.26 -506.79,-372.26 -541.43,-352.26 -521.43,-317.62 -541.43,-282.97 -576.07,-302.97 -576.07,-342.97 -616.07,-342.97 -636.07,-377.62 -656.07,-412.26 -636.07,-446.90 -601.43,-426.90" fill="hsl(105.048, 65%, 62%)" fill-opacity="0.12" stroke="hsl(105.048, 65%, 62%)" stroke-width="1.5" stroke-linejoin="round" />
  <polygon points="-566.79,-516.18 -586.79,-481.54 -566.79,-446.90 -601.43,-426.90 -636.07,-446.90 -656.07,-412.26 -696.07,-412.26 -696.07,-452.26 -661.43,-472.26 -681.43,-506.90 -661.43,-541.54 -641.43,-576.18 -601.43,-576.18 -601.43,-536.18" fill="hsl(157.57200000000012, 65%, 62%)" fill-opacity="0.12" stroke="hsl(157.57200000000012, 65%, 62%)" stroke-width="1.5" stroke-linejoin="round" />
  <polygon points="-670.71,-179.05 -630.71,-179.05 -610.71,-213.69 -576.07,-193.69 -576.07,-153.69 -536.07,-153.69 -516.07,-119.05 -550.71,-99.05 -585.35,-119.05 -605.35,-84.41 -645.35,-84.41 -685.35,-84.41 -705.35,-119.05 -670.71,-139.05" fill="hsl(295.08000000000015, 65%, 62%)" fill-opacity="0.12" stroke="hsl(295.08000000000015, 65%, 62%)" stroke-width="1.5" stroke-linejoin="round" />
  <polygon points="-730.71,-213.69 -710.71,-179.05 -670.71,-179.05 -670.71,-139.05 -705.35,-119.05 -685.35,-84.41 -705.35,-49.77 -739.99,-69.77 -739.99,-109.77 -779.99,-109.77 -799.99,-144.41 -819.99,-179.05 -799.99,-213.69 -765.35,-193.69" fill="hsl(52.524, 65%, 62%)" fill-opacity="0.12" stroke="hsl(52.524, 65%, 62%)" stroke-width="1.5" stroke-linejoin="round" />
  <polygon points="-705.35,-308.33 -725.35,-342.97 -765.35,-342.97 -765.35,-382.97 -730.71,-402.97 -750.71,-437.62 -730.71,-472.26 -696.07,-452.26 -696.07,-412.26 -656.07,-412.26 -636.07,-377.62 -616.07,-342.97 -636.07,-308.33 -670.71,-328.33" fill="hsl(157.57200000000012, 65%, 62%)" fill-opacity="0.12" stroke="hsl(157.57200000000012, 65%, 62%)" stroke-width="1.5" stroke-linejoin="round" />
  <polygon points="-541.43,-282.97 -561.43,-248.33 -541.43,-213.69 -576.07,-193.69 -610.71,-213.69 -630.71,-179.05 -670.71,-179.05 -670.71,-219.05 -636.07,-239.05 -656.07,-273.69 -636.07,-308.33 -616.07,-342.97 -576.07,-342.97 -576.07,-302.97" fill="hsl(137.50800000000004, 65%, 62%)" fill-opacity="0.12" stroke="hsl(137.50800000000004, 65%, 62%)" stroke-width="1.5" stroke-linejoin="round" />
  <polygon points="-636.07,-239.05 -670.71,-219.05 -670.71,-179.05 -710.71,-179.05 -730.71,-213.69 -765.35,-193.69 -799.99,-213.69 -779.99,-248.33 -739.99,-248.33 -739.99,-288.33 -705.35,-308.33 -670.71,-328.33 -636.07,-308.33 -656.07,-273.69" fill="hsl(275.0160000000001, 65%, 62%)" fill-opacity="0.12" stroke="hsl(275.0160000000001, 65%, 62%)" stroke-width="1.5" stroke-linejoin="round" />
  <polygon points="-257.50,-257.62 -237.50,-292.26 -257.50,-326.90 -222.86,-346.90 -188.22,-326.90 -168.22,-361.54 -128.22,-361.54 -128.22,-321.54 -162.86,-301.54 -142.86,-266.90 -162.86,-232.26 -182.86,-197.62 -222.86,-197.62 -222.86,-237.62" fill="hsl(295.08000000000015, 65%, 62%)" fill-opacity="0.12" stroke="hsl(295.08000000000015, 65%, 62%)" stroke-width="1.5" stroke-linejoin="round" />
  <polygon points="-317.50,-222.97 -277.50,-222.97 -257.50,-257.62 -222.86,-237.62 -222.86,-197.62 -182.86,-197.62 -162.86,-162.97 -197.50,-142.97 -232.15,-162.97 -252.15,-128.33 -292.15,-128.33 -332.15,-128.33 -352.15,-162.97 -317.50,-182.97" fill="hsl(52.524, 65%, 62%)" fill-opacity="0.12" stroke="hsl(52.524, 65%, 62%)" stroke-width="1.5" stroke-linejoin="round" />
  <polygon points="-292.15,-128.33 -252.15,-128.33 -232.15,-162.97 -197.50,-142.97 -197.50,-102.97 -157.50,-102.97 -137.50,-68.33 -172.15,-48.33 -206.79,-68.33 -226.79,-33.69 -266.79,-33.69 -306.79,-33.69 -326.79,-68.33 -292.15,-88.33" fill="hsl(295.08000000000015, 65%, 62%)" fill-opacity="0.12" stroke="hsl(295.08000000000015, 65%, 62%)" stroke-width="1.5" stroke-linejoin="round" />
  <polygon points="-352.15,-162.97 -332.15,-128.33 -292.15,-128.33 -292.15,-88.33 -326.79,-68.33 -306.79,-33.69 -326.79,0.95 -361.43,-19.05 -361.43,-59.05 -401.43,-59.05 -421.43,-93.69 -441.43,-128.33 -421.43,-162.97 -386.79,-142.97" fill="hsl(157.57200000000012, 65%, 62%)" fill-opacity="0.12" stroke="hsl(157.57200000000012, 65%, 62%)" stroke-width="1.5" stroke-linejoin="round" />
  <polygon points="-352.15,-232.26 -372.15,-197.62 -352.15,-162.97 -386.79,-142.97 -421.43,-162.97 -441.43,-128.33 -481.43,-128.33 -481.43,-168.33 -446.79,-188.33 -466.79,-222.97 -446.79,-257.62 -426.79,-292.26 -386.79,-292.26 -386.79,-252.26" fill="hsl(20.064000000000078, 65%, 62%)" fill-opacity="0.12" stroke="hsl(20.064000000000078, 65%, 62%)" stroke-width="1.5" stroke-linejoin="round" />
  <polygon points="-446.79,-257.62 -466.79,-222.97 -446.79,-188.33 -481.43,-168.33 -516.07,-188.33 -536.07,-153.69 -576.07,-153.69 -576.07,-193.69 -541.43,-213.69 -561.43,-248.33 -541.43,-282.97 -521.43,-317.62 -481.43,-317.62 -481.43,-277.62" fill="hsl(242.55600000000004, 65%, 62%)" fill-opacity="0.12" stroke="hsl(242.55600000000004, 65%, 62%)" stroke-width="1.5" stroke-linejoin="round" />
  <polygon points="-386.79,-292.26 -426.79,-292.26 -446.79,-257.62 -481.43,-277.62 -481.43,-317.62 -521.43,-317.62 -541.43,-352.26 -506.79,-372.26 -472.15,-352.26 -452.15,-386.90 -412.15,-386.90 -372.15,-386.90 -352.15,-352.26 -386.79,-332.26" fill="hsl(157.57200000000012, 65%, 62%)" fill-opacity="0.12" stroke="hsl(157.57200000000012, 65%, 62%)" stroke-width="1.5" stroke-linejoin="round" />
  <polygon points="-282.86,-421.54 -262.86,-386.90 -222.86,-386.90 -222.86,-346.90 -257.50,-326.90 -237.50,-292.26 -257.50,-257.62 -292.15,-277.62 -292.15,-317.62 -332.15,-317.62 -352.15,-352.26 -372.15,-386.90 -352.15,-421.54 -317.50,-401.54" fill="hsl(137.50800000000004, 65%, 62%)" fill-opacity="0.12" stroke="hsl(137.50800000000004, 65%, 62%)" stroke-width="1.5" stroke-linejoin="round" />
  <polygon points="-292.15,-317.62 -292.15,-277.62 -257.50,-257.62 -277.50,-222.97 -317.50,-222.97 -317.50,-182.97 -352.15,-162.97 -372.15,-197.62 -352.15,-232.26 -386.79,-252.26 -386.79,-292.26 -386.79,-332.26 -352.15,-352.26 -332.15,-317.62" fill="hsl(275.0160000000001, 65%, 62%)" fill-opacity="0.12" stroke="hsl(275.0160000000001, 65%, 62%)" stroke-width="1.5" stroke-linejoin="round" />
  <polygon points="-144.30,-560.10 -124.30,-525.46 -84.30,-525.46 -84.30,-485.46 -118.94,-465.46 -98.94,-430.82 -118.94,-396.18 -153.58,-416.18 -153.58,-456.18 -193.58,-456.18 -213.58,-490.82 -233.58,-525.46 -213.58,-560.10 -178.94,-540.10" fill="hsl(20.064000000000078, 65%, 62%)" fill-opacity="0.12" stroke="hsl(20.064000000000078, 65%, 62%)" stroke-width="1.5" stroke-linejoin="round" />
  <polygon points="-213.58,-490.82 -193.58,-456.18 -153.58,-456.18 -153.58,-416.18 -188.22,-396.18 -168.22,-361.54 -188.22,-326.90 -222.86,-346.90 -222.86,-386.90 -262.86,-386.90 -282.86,-421.54 -302.86,-456.18 -282.86,-490.82 -248.22,-470.82" fill="hsl(242.55600000000004, 65%, 62%)" fill-opacity="0.12" stroke="hsl(242.55600000000004, 65%, 62%)" stroke-width="1.5" stroke-linejoin="round" />
  <polygon points="294.26,-474.74 334.26,-474.74 354.26,-509.38 388.91,-489.38 388.91,-449.38 428.91,-449.38 448.91,-414.74 414.26,-394.74 379.62,-414.74 359.62,-380.10 319.62,-380.10 279.62,-380.10 259.62,-414.74 294.26,-434.74" fill="hsl(157.57200000000012, 65%, 62%)" fill-opacity="0.12" stroke="hsl(157.57200000000012, 65%, 62%)" stroke-width="1.5" stroke-linejoin="round" />
  <polygon points="234.26,-509.38 254.26,-474.74 294.26,-474.74 294.26,-434.74 259.62,-414.74 279.62,-380.10 259.62,-345.46 224.98,-365.46 224.98,-405.46 184.98,-405.46 164.98,-440.10 144.98,-474.74 164.98,-509.38 199.62,-489.38" fill="hsl(20.064000000000078, 65%, 62%)" fill-opacity="0.12" stroke="hsl(20.064000000000078, 65%, 62%)" stroke-width="1.5" stroke-linejoin="round" />
  <polygon points="164.98,-440.10 184.98,-405.46 224.98,-405.46 224.98,-365.46 190.34,-345.46 210.34,-310.82 190.34,-276.18 155.70,-296.18 155.70,-336.18 115.70,-336.18 95.70,-370.82 75.70,-405.46 95.70,-440.10 130.34,-420.10" fill="hsl(295.08000000000015, 65%, 62%)" fill-opacity="0.12" stroke="hsl(295.08000000000015, 65%, 62%)" stroke-width="1.5" stroke-linejoin="round" />
  <polygon points="164.98,-509.38 144.98,-474.74 164.98,-440.10 130.34,-420.10 95.70,-440.10 75.70,-405.46 35.70,-405.46 35.70,-445.46 70.34,-465.46 50.34,-500.10 70.34,-534.74 90.34,-569.38 130.34,-569.38 130.34,-529.38" fill="hsl(157.57200000000012, 65%, 62%)" fill-opacity="0.12" stroke="hsl(157.57200000000012, 65%, 62%)" stroke-width="1.5" stroke-linejoin="round" />
</svg>
